# xmcd
#
# Track frame offsets:
#	150
#	28038
#	60150
#	80188
#	108963
#	124863
#	142475
#	161688
#	187950
#	215325
#
# Disc length: 3308 seconds
#
# Revision: 1
# Processed by: cddbd v1.5.1PL0 Copyright (c) Steve Scherf et al.
# Submitted via: audiograbber 1.83.01
#
DISCID=8d0cea0a
DTITLE=Womack and Womack - Family Spirit
DYEAR=1900
DGENRE=Soul
TTITLE0=Family Spirit
TTITLE1=Uptown
TTITLE2=Refusal
TTITLE3=Living in a different world
TTITLE4=United
TTITLE5=My dear
TTITLE6=Blue Jean Baby
TTITLE7=Danceworld
TTITLE8=Keep on climbing
TTITLE9=Lonely island
EXTD=
EXTT0=
EXTT1=
EXTT2=
EXTT3=
EXTT4=
EXTT5=
EXTT6=
EXTT7=
EXTT8=
EXTT9=
PLAYORDER=
